<svg id="Layer_2" data-name="Layer 2" xmlns="http://www.w3.org/2000/svg" viewBox="0 0 439.1 139.3"><defs><style>.cls-1{fill:#124d9b;}.cls-2{fill:#084b9a;}</style></defs><path class="cls-1" d="M1356.7,364.7s-7.5-19.2,3.3-19c8.5.1,4.4,56,4.4,56l26.5-5s-6.4-41.7,6.6-44.8-2.6,64.1,25.1,81.4c23.3,14.6,60,3.7,45.9-27.6,0,0-15.6,17.7-31.8-6.8s7-54.8-14.1-65.8c-14.7-7.6-31.3,4.2-31.3,4.2s-16.4-32.5-45.4-12C1314,347.8,1339.9,379.2,1356.7,364.7Z" transform="translate(-1330.8 -300.4)"/><path class="cls-2" d="M1466.2,331.2c-17.4,0-31.6,15.7-31.6,35.2s14.2,35.2,31.6,35.2,31.5-15.8,31.5-35.2S1483.6,331.2,1466.2,331.2Zm0,47.1c-5.9,0-10.7-5.3-10.7-11.9s4.8-11.9,10.7-11.9,10.7,5.3,10.7,11.9S1472.1,378.3,1466.2,378.3Z" transform="translate(-1330.8 -300.4)"/><path class="cls-2" d="M1543.9,372.2c-1.8,3.8-7,5.9-11.1,5.9-6,0-10.8-5.5-10.8-12.1s4.8-12.1,10.8-12.1c4.4,0,9.3,2.7,10.9,7l15.6-14.5c-5.7-9.7-15.5-16.1-26.5-16.1-17.6,0-31.8,16-31.8,35.7s14.2,35.6,31.8,35.6c10.7,0,20.2-6,25.9-15.1Z" transform="translate(-1330.8 -300.4)"/><path class="cls-2" d="M1553.2,332.8c.6.1,12.3,8.6,13.1,11.5v41c0,10.7,12.7,16.3,18.4,16.2,10.4-.1,20.7-6.7,20.7-16.2V368.2s-7.6,9.5-14-.2l-.2-23.7h14.2V320.4h-14.2V303.9l-24.9,4.1v12.4h-13.2Z" transform="translate(-1330.8 -300.4)"/><rect class="cls-2" x="281.1" y="32.3" width="25" height="68.87"/><circle class="cls-2" cx="293.6" cy="14.1" r="14.1"/><polygon class="cls-2" points="310.1 32.3 333.9 32.3 341.2 60.9 350.4 32.3 375.2 32.3 350.6 101.2 330 101.2 310.1 32.3"/><path class="cls-2" d="M1762.5,384.7c10.7-23.5,10.1-43.2-4.3-50.1-7.5-3.6-14.6-3.4-19.4.4-1.6,1.3-3.6,5.1-3.6,7.2v.7a12.7,12.7,0,0,0,3.7,8.5c2.4,2.1,8.8,4.9,8.8,9.2,0,6-4.7,9.7-10.8,9.7h-1.4c-10.2-.7-15-9.1-15-20.2,0-6.9,4-11.9,3.7-11.9h-2.8c-6.3.1-11.7,6.6-13.8,10.3s-6.5,15.1-3.5,23.3,10,14.6,10.3,20.8c.3,8.8-9.3,14.1-13.7,19.5s-2.6,17,2.1,22.6C1703.8,435.7,1750.5,411.3,1762.5,384.7Z" transform="translate(-1330.8 -300.4)"/><path class="cls-2" d="M1553,334.8" transform="translate(-1330.8 -300.4)"/><path class="cls-2" d="M1520.2,324.1" transform="translate(-1330.8 -300.4)"/></svg>